# xmcd
#
# Track frame offsets: 
#        150
#        21930
#        34222
#        48452
#        64857
#        85887
#        100732
#        127685
#        152080
#        168600
#        178822
#        201920
#        213947
#        256875
#        267497
#        285277
#        312510
#        323807
#
# Disc length: 4570 seconds
#
# Revision: 14
# Processed by: cddbd v1.5.2PL0 Copyright (c) Steve Scherf et al.
# Submitted via: ExactAudioCopy v1.3
#
DISCID=0111d812
DTITLE=Various Artist - Jazz Moods ( disc 1 )
DYEAR=1995
DGENRE=Jazz
TTITLE0=Dave Brubeck - Take Five
TTITLE1=Nat King Cole - Let There Be Love
TTITLE2=Buddy Greco - The Lady is a Tramp
TTITLE3=Stan Getz - Girl from Ipanema ( feat. Astrud Gilberto )
TTITLE4=Miles Davis - Miles
TTITLE5=Peggy Lee - Fever
TTITLE6=Lee Ritenour - 4 on 6
TTITLE7=Claire Martin - Moon Ray
TTITLE8=Billy Taylor - I Wish I Knew ( How it Would Feel to be Free )
TTITLE9=Dinah Washington - Call Me Irresponsible
TTITLE10=Earl Klugh - The Shadow of Your Smile
TTITLE11=Dinah Shore - It's Alright With Me
TTITLE12=Art Blakey and The Jazz Messengers - Moanin'
TTITLE13=Tony Bennett - On the Sunny Side of the Street
TTITLE14=Spyro Gyra - Morning Dance
TTITLE15=George Benson - Summertime
TTITLE16=Aretha Franklin - Love for Sale
TTITLE17=US3 - Cantaloop ( feat. Rashaan - inst. )
EXTD=
EXTT0=
EXTT1=
EXTT2=
EXTT3=
EXTT4=
EXTT5=
EXTT6=
EXTT7=
EXTT8=
EXTT9=
EXTT10=
EXTT11=
EXTT12=
EXTT13=
EXTT14=
EXTT15=
EXTT16=
EXTT17=
PLAYORDER=
